<?xml version="1.0" encoding="UTF-8"?>
<svg id="Layer_1" xmlns="http://www.w3.org/2000/svg" version="1.1" viewBox="0 0 34 20">
  <!-- Generator: Adobe Illustrator 29.5.1, SVG Export Plug-In . SVG Version: 2.1.0 Build 141)  -->
  <defs>
    <style>
      .st0 {
        fill: #d9d9d9;
      }
    </style>
  </defs>
  <path class="st0" d="M19,19c.55,0,1-.45,1-1s-.45-1-1-1v2ZM9.71,1.29c-.39-.39-1.02-.39-1.41,0L1.93,7.66c-.39.39-.39,1.02,0,1.41.39.39,1.02.39,1.41,0l5.66-5.66,5.66,5.66c.39.39,1.02.39,1.41,0,.39-.39.39-1.02,0-1.41L9.71,1.29ZM19,18v-1h-6v2h6v-1ZM9,14h1V2h-2v12h1ZM13,18v-1c-1.66,0-3-1.34-3-3h-2c0,2.76,2.24,5,5,5v-1Z"/>
  <circle class="st0" cx="25.5" cy="17.5" r="1.5"/>
  <circle class="st0" cx="30.5" cy="17.5" r="1.5"/>
</svg>