<svg width="20" height="20" viewBox="0 0 20 20" fill="none" xmlns="http://www.w3.org/2000/svg">
<path d="M14.3634 11.5198L18.7118 8.32876C18.9617 8.14334 19.0617 7.83107 18.9617 7.54806C18.8617 7.26506 18.5918 7.06989 18.2819 7.06989H12.5441L10.6748 1.47817C10.5848 1.19517 10.3049 1 9.995 1C9.68512 1 9.41522 1.19517 9.31525 1.47817L7.45594 7.06989H1.71806C1.40817 7.06989 1.13827 7.26506 1.03831 7.54806C0.938343 7.83107 1.03831 8.14334 1.28821 8.32876L5.63661 11.5198L4.05719 17.1213C3.97722 17.4141 4.09718 17.7166 4.34709 17.8825C4.60699 18.0484 4.93687 18.0386 5.18678 17.8532L9.995 14.1937L14.8032 17.8532C15.0431 18.0386 15.383 18.0484 15.6429 17.8825C15.9028 17.7166 16.0128 17.4043 15.9328 17.1213L14.3634 11.5198Z" fill="white"/>
</svg>
