<svg width="20" height="20" viewBox="0 0 20 20" fill="none" xmlns="http://www.w3.org/2000/svg">
<path d="M9.99512 1.5C10.0765 1.50004 10.1394 1.53905 10.1738 1.58398L10.1982 1.62988L10.2002 1.63672L12.0703 7.22852L12.1836 7.57031H18.2822C18.3791 7.57043 18.4606 7.63088 18.4902 7.71484C18.5075 7.76404 18.5022 7.82408 18.4639 7.87695L18.4141 7.92676L14.0674 11.1172L13.7881 11.3213L13.8818 11.6543L15.4512 17.2559V17.2568C15.4728 17.3332 15.443 17.4168 15.374 17.4609C15.3062 17.5042 15.2276 17.509 15.165 17.4873L15.1094 17.458L15.1064 17.4551L10.2979 13.7959L9.99512 13.5654L9.69238 13.7959L4.88477 17.4531C4.80427 17.5109 4.70447 17.5148 4.62012 17.4629C4.56552 17.4251 4.53606 17.37 4.5332 17.3125L4.53906 17.2529L6.11816 11.6553L6.21191 11.3223L5.93262 11.1172L1.58496 7.92676H1.58594C1.50371 7.86554 1.48669 7.78048 1.50977 7.71484C1.53942 7.63088 1.62089 7.57043 1.71777 7.57031H7.81641L7.93066 7.22754L9.78711 1.64453C9.81688 1.56064 9.89822 1.5 9.99512 1.5Z" stroke="white"/>
</svg>
